<?xml version="1.0" standalone="yes"?>
<!DOCTYPE svg PUBLIC "-//W3C//DTD SVG 1.1//EN"
 "http://www.w3.org/Graphics/SVG/1.1/DTD/svg11.dtd">
<svg xmlns="http://www.w3.org/2000/svg" version="1.1"
  width="100%" height="100%" viewBox="0 0 1024 768"
  style="fill: none; font-family: Helvetica;
 font: Helvetica;
">

<!-- Creator: NGspice -->

<rect x="0" y="0" width="1024" height="768" fill="black" stroke="none"/>
<text stroke="none" fill="white" font-size="16" x="358" y="752">
time
</text>
<text stroke="none" fill="white" font-size="16" x="10" y="16">
tran1: *fd
</text>
<path stroke="white" d="M50 720l0 -666"/>
<text stroke="none" fill="white" font-size="16" x="35" y="728">
0.0
</text>
<path stroke="white" stroke-dasharray="1,2" d="M142 720l0 -666"/>
<text stroke="none" fill="white" font-size="16" x="122" y="728">
20.0
</text>
<path stroke="white" stroke-dasharray="1,2" d="M234 720l0 -666"/>
<text stroke="none" fill="white" font-size="16" x="214" y="728">
40.0
</text>
<path stroke="white" stroke-dasharray="1,2" d="M326 720l0 -666"/>
<text stroke="none" fill="white" font-size="16" x="306" y="728">
60.0
</text>
<path stroke="white" stroke-dasharray="1,2" d="M418 720l0 -666"/>
<text stroke="none" fill="white" font-size="16" x="398" y="728">
80.0
</text>
<path stroke="white" stroke-dasharray="1,2" d="M510 720l0 -666"/>
<text stroke="none" fill="white" font-size="16" x="485" y="728">
100.0
</text>
<path stroke="white" stroke-dasharray="1,2" d="M602 720l0 -666"/>
<text stroke="none" fill="white" font-size="16" x="577" y="728">
120.0
</text>
<path stroke="white" stroke-dasharray="1,2" d="M694 720l0 -666"/>
<text stroke="none" fill="white" font-size="16" x="669" y="728">
140.0
</text>
<path stroke="white" stroke-dasharray="1,2" d="M786 720l0 -666"/>
<text stroke="none" fill="white" font-size="16" x="761" y="728">
160.0
</text>
<path stroke="white" stroke-dasharray="1,2" d="M878 720l0 -666"/>
<text stroke="none" fill="white" font-size="16" x="853" y="728">
180.0
</text>
<path stroke="white" stroke-dasharray="1,2" d="M970 720l0 -666"/>
<text stroke="none" fill="white" font-size="16" x="945" y="728">
200.0
</text>
<text stroke="none" fill="white" font-size="16" x="614" y="752">
ns
</text>
<path stroke="white" stroke-dasharray="1,2" d="M50 720l920 0"/>
<text stroke="none" fill="white" font-size="16" x="8" y="728">
-0.5
</text>
<path stroke="white" d="M50 646l920 0"/>
<text stroke="none" fill="white" font-size="16" x="18" y="654">
0.0
</text>
<path stroke="white" stroke-dasharray="1,2" d="M50 572l920 0"/>
<text stroke="none" fill="white" font-size="16" x="18" y="580">
0.5
</text>
<path stroke="white" stroke-dasharray="1,2" d="M50 498l920 0"/>
<text stroke="none" fill="white" font-size="16" x="18" y="506">
1.0
</text>
<path stroke="white" stroke-dasharray="1,2" d="M50 424l920 0"/>
<text stroke="none" fill="white" font-size="16" x="18" y="432">
1.5
</text>
<path stroke="white" stroke-dasharray="1,2" d="M50 350l920 0"/>
<text stroke="none" fill="white" font-size="16" x="18" y="358">
2.0
</text>
<path stroke="white" stroke-dasharray="1,2" d="M50 276l920 0"/>
<text stroke="none" fill="white" font-size="16" x="18" y="284">
2.5
</text>
<path stroke="white" stroke-dasharray="1,2" d="M50 202l920 0"/>
<text stroke="none" fill="white" font-size="16" x="18" y="210">
3.0
</text>
<path stroke="white" stroke-dasharray="1,2" d="M50 128l920 0"/>
<text stroke="none" fill="white" font-size="16" x="18" y="136">
3.5
</text>
<path stroke="white" stroke-dasharray="1,2" d="M50 54l920 0"/>
<text stroke="none" fill="white" font-size="16" x="18" y="62">
4.0
</text>
<text stroke="none" fill="white" font-size="16" x="10" y="32">
     
</text>
<path stroke="red" d="M460 23l46 0"/>
<text stroke="none" fill="white" font-size="16" x="516" y="32">
v(6)
</text>
<path stroke="red" d="M50 552l1 0 1 0 1 0 1 0 1 0 0 -2 0 -2 0 2 0 3 0 3 0 2 0 1 0 -1 0 1 0 -1 1 1 0 -1 1 1 0 -1 1 1 0 -1 0 1 1 -1 0 1 1 -1 0 1 1 -1 0 1 1 -1 0 1 1 0 1 0 1 0 1 0 1 0 1 0 1 0 1 0 1 0 1 0 1 0 1 0 1 0 1 0 1 0 1 0 0 2 0 -1 0 -2 0 -4"/>
<path stroke="red" d="M78 554l0 -7 0 -13 0 -21 0 -21 0 -35 1 -35 0 -22 1 -10 0 -6 1 -2 0 -1 1 -1 1 0 1 0 1 0 1 0 1 0 1 0 1 0 1 0 1 0 1 0 1 0 1 0 1 0 1 0 1 0 1 0 1 0 1 0 1 0 0 -1 0 -2 0 -3 0 1 0 1 0 2 1 0 1 0 1 0 1 0 1 0 1 0 1 0 1 0 1 0 1 0 1 0"/>
<path stroke="red" d="M112 378l1 0 1 0 1 0 1 0 1 0 1 0 1 0 1 0 1 0 1 0 1 0 1 0 0 1 0 3 0 2 0 1 0 2 0 3 0 5 0 22 0 58 0 66 0 63 1 38 0 5 1 -1 1 0 1 0 1 0 1 0 1 0 1 0 1 0 1 0 1 0 1 0 1 0 1 0 1 0 1 0 1 0 1 0 1 0 1 0 1 0 1 0 1 0 0 -1 0 -1 0 -2 0 2"/>
<path stroke="red" d="M147 644l0 3 0 5 0 6 0 1 1 0 1 0 1 0 1 0 1 0 1 0 1 0 1 0 1 0 1 0 1 0 1 0 1 0 1 0 1 0 1 0 1 0 1 0 1 0 1 0 1 0 1 0 1 0 0 1 0 1 0 -1 0 -2 0 -4 0 -14 0 -34 0 -37 0 -33 0 -37 1 -30 0 -39 0 -25 1 -13 0 -7 1 -3 0 -1 1 -1 1 0 1 0"/>
<path stroke="red" d="M176 380l1 0 1 0 1 0 1 0 1 0 1 0 1 0 1 0 1 0 1 0 1 0 1 0 1 0 1 0 1 0 1 0 1 0 0 -1 0 -2 0 -3 0 1 0 1 0 2 1 0 1 0 1 0 1 0 1 0 1 0 1 0 1 0 1 0 1 0 1 0 1 0 1 0 1 0 1 0 1 0 1 0 1 0 1 0 1 0 1 0 1 0 1 0 0 1 0 3 0 2 0 1 0 2 0 3"/>
<path stroke="red" d="M216 390l0 5 0 22 0 58 0 66 0 63 1 38 0 5 1 -1 1 0 1 0 1 0 1 0 1 0 1 0 1 0 1 0 1 0 1 0 1 0 1 0 1 0 1 0 1 0 1 0 1 0 1 0 1 0 1 0 1 0 0 -1 0 -1 0 -2 0 2 0 3 0 5 0 6 0 1 1 0 1 0 1 0 1 0 1 0 1 0 1 0 1 0 1 0 1 0 1 0 1 0 1 0 1 0"/>
<path stroke="red" d="M253 659l1 0 1 0 1 0 1 0 1 0 1 0 1 0 1 0 1 0 0 1 0 1 0 -1 0 -2 0 -4 0 -14 0 -34 0 -37 0 -33 0 -37 1 -30 0 -39 0 -25 1 -13 0 -7 1 -3 0 -1 1 -1 1 0 1 0 1 0 1 0 1 0 1 0 1 0 1 0 1 0 1 0 1 0 1 0 1 0 1 0 1 0 1 0 1 0 1 0 1 0 0 -1"/>
<path stroke="red" d="M285 379l0 -2 0 -3 0 1 0 1 0 2 1 0 1 0 1 0 1 0 1 0 1 0 1 0 1 0 1 0 1 0 1 0 1 0 1 0 1 0 1 0 1 0 1 0 1 0 1 0 1 0 1 0 1 0 1 0 0 1 0 3 0 2 0 1 0 2 0 3 0 5 0 22 0 58 0 66 0 63 1 38 0 5 1 -1 1 0 1 0 1 0 1 0 1 0 1 0 1 0 1 0 1 0"/>
<path stroke="red" d="M319 646l1 0 1 0 1 0 1 0 1 0 1 0 1 0 1 0 1 0 1 0 1 0 1 0 0 -1 0 -1 0 -2 0 2 0 3 0 5 0 6 0 1 1 0 1 0 1 0 1 0 1 0 1 0 1 0 1 0 1 0 1 0 1 0 1 0 1 0 1 0 1 0 1 0 1 0 1 0 1 0 1 0 1 0 1 0 1 0 0 1 0 1 0 -1 0 -2 0 -4 0 -14 0 -34 0 -37"/>
<path stroke="red" d="M354 569l0 -33 0 -37 1 -30 0 -39 0 -25 1 -13 0 -7 1 -3 0 -1 1 -1 1 0 1 0 1 0 1 0 1 0 1 0 1 0 1 0 1 0 1 0 1 0 1 0 1 0 1 0 1 0 1 0 1 0 1 0 1 0 0 -1 0 -2 0 -3 0 1 0 1 0 2 1 0 1 0 1 0 1 0 1 0 1 0 1 0 1 0 1 0 1 0 1 0 1 0 1 0"/>
<path stroke="red" d="M390 378l1 0 1 0 1 0 1 0 1 0 1 0 1 0 1 0 1 0 1 0 0 1 0 3 0 2 0 1 0 2 0 3 0 5 0 22 0 58 0 66 0 63 1 38 0 5 1 -1 1 0 1 0 1 0 1 0 1 0 1 0 1 0 1 0 1 0 1 0 1 0 1 0 1 0 1 0 1 0 1 0 1 0 1 0 1 0 1 0 1 0 0 -1 0 -1 0 -2 0 2 0 3 0 5"/>
<path stroke="red" d="M423 652l0 6 0 1 1 0 1 0 1 0 1 0 1 0 1 0 1 0 1 0 1 0 1 0 1 0 1 0 1 0 1 0 1 0 1 0 1 0 1 0 1 0 1 0 1 0 1 0 1 0 0 1 0 1 0 -1 0 -2 0 -4 0 -14 0 -34 0 -37 0 -33 0 -37 1 -30 0 -39 0 -25 1 -13 0 -7 1 -3 0 -1 1 -1 1 0 1 0 1 0 1 0"/>
<path stroke="red" d="M454 380l1 0 1 0 1 0 1 0 1 0 1 0 1 0 1 0 1 0 1 0 1 0 1 0 1 0 1 0 1 0 0 -1 0 -2 0 -3 0 1 0 1 0 2 1 0 1 0 1 0 1 0 1 0 1 0 1 0 1 0 1 0 1 0 1 0 1 0 1 0 1 0 1 0 1 0 1 0 1 0 1 0 1 0 1 0 1 0 1 0 0 1 0 3 0 2 0 1 0 2 0 3 0 5 0 22"/>
<path stroke="red" d="M492 417l0 58 0 66 0 63 1 38 0 5 1 -1 1 0 1 0 1 0 1 0 1 0 1 0 1 0 1 0 1 0 1 0 1 0 1 0 1 0 1 0 1 0 1 0 1 0 1 0 1 0 1 0 1 0 0 -1 0 -1 0 -2 0 2 0 3 0 5 0 6 0 1 1 0 1 0 1 0 1 0 1 0 1 0 1 0 1 0 1 0 1 0 1 0 1 0 1 0 1 0 1 0 1 0"/>
<path stroke="red" d="M531 659l1 0 1 0 1 0 1 0 1 0 1 0 1 0 0 1 0 1 0 -1 0 -2 0 -4 0 -14 0 -34 0 -37 0 -33 0 -37 1 -30 0 -39 0 -25 1 -13 0 -7 1 -3 0 -1 1 -1 1 0 1 0 1 0 1 0 1 0 1 0 1 0 1 0 1 0 1 0 1 0 1 0 1 0 1 0 1 0 1 0 1 0 1 0 1 0 0 -1 0 -2"/>
<path stroke="red" d="M561 377l0 -3 0 1 0 1 0 2 1 0 1 0 1 0 1 0 1 0 1 0 1 0 1 0 1 0 1 0 1 0 1 0 1 0 1 0 1 0 1 0 1 0 1 0 1 0 1 0 1 0 1 0 1 0 0 1 0 3 0 2 0 1 0 2 0 3 0 5 0 22 0 58 0 66 0 63 1 38 0 5 1 -1 1 0 1 0 1 0 1 0 1 0 1 0 1 0 1 0 1 0 1 0"/>
<path stroke="red" d="M596 646l1 0 1 0 1 0 1 0 1 0 1 0 1 0 1 0 1 0 1 0 1 0 0 -1 0 -1 0 -2 0 2 0 3 0 5 0 6 0 1 1 0 1 0 1 0 1 0 1 0 1 0 1 0 1 0 1 0 1 0 1 0 1 0 1 0 1 0 1 0 1 0 1 0 1 0 1 0 1 0 1 0 1 0 1 0 0 1 0 1 0 -1 0 -2 0 -4 0 -14 0 -34 0 -37"/>
<path stroke="red" d="M630 569l0 -33 0 -37 1 -30 0 -39 0 -25 1 -13 0 -7 1 -3 0 -1 1 -1 1 0 1 0 1 0 1 0 1 0 1 0 1 0 1 0 1 0 1 0 1 0 1 0 1 0 1 0 1 0 1 0 1 0 1 0 1 0 0 -1 0 -2 0 -3 0 1 0 1 0 2 1 0 1 0 1 0 1 0 1 0 1 0 1 0 1 0 1 0 1 0 1 0 1 0 1 0"/>
<path stroke="red" d="M666 378l1 0 1 0 1 0 1 0 1 0 1 0 1 0 1 0 1 0 1 0 0 1 0 3 0 2 0 1 0 2 0 3 0 5 0 22 0 58 0 66 0 63 1 38 0 5 1 -1 1 0 1 0 1 0 1 0 1 0 1 0 1 0 1 0 1 0 1 0 1 0 1 0 1 0 1 0 1 0 1 0 1 0 1 0 1 0 1 0 1 0 0 -1 0 -1 0 -2 0 2 0 3 0 5"/>
<path stroke="red" d="M699 652l0 6 0 1 1 0 1 0 1 0 1 0 1 0 1 0 1 0 1 0 1 0 1 0 1 0 1 0 1 0 1 0 1 0 1 0 1 0 1 0 1 0 1 0 1 0 1 0 1 0 0 1 0 1 0 -1 0 -2 0 -4 0 -14 0 -34 0 -37 0 -33 0 -37 1 -30 0 -39 0 -25 1 -13 0 -7 1 -3 0 -1 1 -1 1 0 1 0 1 0 1 0"/>
<path stroke="red" d="M730 380l1 0 1 0 1 0 1 0 1 0 1 0 1 0 1 0 1 0 1 0 1 0 1 0 1 0 1 0 1 0 0 -1 0 -2 0 -3 0 1 0 1 0 2 1 0 1 0 1 0 1 0 1 0 1 0 1 0 1 0 1 0 1 0 1 0 1 0 1 0 1 0 1 0 1 0 1 0 1 0 1 0 1 0 1 0 1 0 1 0 0 1 0 3 0 2 0 1 0 2 0 3 0 5 0 22"/>
<path stroke="red" d="M768 417l0 58 0 66 0 63 1 38 0 5 1 -1 1 0 1 0 1 0 1 0 1 0 1 0 1 0 1 0 1 0 1 0 1 0 1 0 1 0 1 0 1 0 1 0 1 0 1 0 1 0 1 0 1 0 0 -1 0 -1 0 -2 0 2 0 3 0 5 0 6 0 1 1 0 1 0 1 0 1 0 1 0 1 0 1 0 1 0 1 0 1 0 1 0 1 0 1 0 1 0 1 0 1 0"/>
<path stroke="red" d="M807 659l1 0 1 0 1 0 1 0 1 0 1 0 1 0 0 1 0 1 0 -1 0 -2 0 -4 0 -14 0 -34 0 -37 0 -33 0 -37 1 -30 0 -39 0 -25 1 -13 0 -7 1 -3 0 -1 1 -1 1 0 1 0 1 0 1 0 1 0 1 0 1 0 1 0 1 0 1 0 1 0 1 0 1 0 1 0 1 0 1 0 1 0 1 0 1 0 0 -1 0 -2"/>
<path stroke="red" d="M837 377l0 -3 0 1 0 1 0 2 1 0 1 0 1 0 1 0 1 0 1 0 1 0 1 0 1 0 1 0 1 0 1 0 1 0 1 0 1 0 1 0 1 0 1 0 1 0 1 0 1 0 1 0 1 0 0 1 0 3 0 2 0 1 0 2 0 3 0 5 0 22 0 58 0 66 0 63 1 38 0 5 1 -1 1 0 1 0 1 0 1 0 1 0 1 0 1 0 1 0 1 0 1 0"/>
<path stroke="red" d="M872 646l1 0 1 0 1 0 1 0 1 0 1 0 1 0 1 0 1 0 1 0 1 0 0 -1 0 -1 0 -2 0 2 0 3 0 5 0 6 0 1 1 0 1 0 1 0 1 0 1 0 1 0 1 0 1 0 1 0 1 0 1 0 1 0 1 0 1 0 1 0 1 0 1 0 1 0 1 0 1 0 1 0 1 0 1 0 0 1 0 1 0 -1 0 -2 0 -4 0 -14 0 -34 0 -37"/>
<path stroke="red" d="M906 569l0 -33 0 -37 1 -30 0 -39 0 -25 1 -13 0 -7 1 -3 0 -1 1 -1 1 0 1 0 1 0 1 0 1 0 1 0 1 0 1 0 1 0 1 0 1 0 1 0 1 0 1 0 1 0 1 0 1 0 1 0 1 0 0 -1 0 -2 0 -3 0 1 0 1 0 2 1 0 1 0 1 0 1 0 1 0 1 0 1 0 1 0 1 0 1 0 1 0 1 0 1 0"/>
<path stroke="red" d="M942 378l1 0 1 0 1 0 1 0 1 0 1 0 1 0 1 0 1 0 1 0 0 1 0 3 0 2 0 1 0 2 0 3 0 5 0 22 0 58 0 66 0 63 1 38 0 5 1 -1 1 0 1 0 1 0 1 0 1 0 1 0 1 0 1 0 1 0 1 0 1 0 1 0 1 0 1 0 1 0 1 0"/>
<path stroke="blue" d="M50 23l46 0"/>
<text stroke="none" fill="white" font-size="16" x="106" y="32">
v(clk)+2
</text>
<path stroke="blue" d="M50 350l1 0 1 0 1 0 1 0 1 0 0 -27 0 -53 0 -106 0 -80 1 0 1 0 1 0 1 0 1 0 1 0 1 0 1 0 1 0 1 0 1 0 1 0 1 0 1 0 1 0 1 0 1 0 1 0 1 0 1 0 1 0 1 0 1 0 0 26 0 54 0 106 0 80 1 0 1 0 1 0 1 0 1 0 1 0 1 0 1 0 1 0 1 0 1 0 1 0 1 0 1 0"/>
<path stroke="blue" d="M92 350l1 0 1 0 1 0 1 0 1 0 1 0 1 0 1 0 1 0 0 -27 0 -53 0 -106 0 -80 1 0 1 0 1 0 1 0 1 0 1 0 1 0 1 0 1 0 1 0 1 0 1 0 1 0 1 0 1 0 1 0 1 0 1 0 1 0 1 0 1 0 1 0 1 0 0 26 0 54 0 106 0 80 1 0 1 0 1 0 1 0 1 0 1 0 1 0 1 0 1 0 1 0"/>
<path stroke="blue" d="M134 350l1 0 1 0 1 0 1 0 1 0 1 0 1 0 1 0 1 0 1 0 1 0 1 0 1 0 0 -27 0 -53 0 -106 0 -80 1 0 1 0 1 0 1 0 1 0 1 0 1 0 1 0 1 0 1 0 1 0 1 0 1 0 1 0 1 0 1 0 1 0 1 0 1 0 1 0 1 0 1 0 1 0 0 26 0 54 0 106 0 80 1 0 1 0 1 0 1 0 1 0"/>
<path stroke="blue" d="M175 350l1 0 1 0 1 0 1 0 1 0 1 0 1 0 1 0 1 0 1 0 1 0 1 0 1 0 1 0 1 0 1 0 1 0 1 0 0 -27 0 -53 0 -106 0 -80 1 0 1 0 1 0 1 0 1 0 1 0 1 0 1 0 1 0 1 0 1 0 1 0 1 0 1 0 1 0 1 0 1 0 1 0 1 0 1 0 1 0 1 0 1 0 0 26 0 54 0 106 0 80"/>
<path stroke="blue" d="M216 350l1 0 1 0 1 0 1 0 1 0 1 0 1 0 1 0 1 0 1 0 1 0 1 0 1 0 1 0 1 0 1 0 1 0 1 0 1 0 1 0 1 0 1 0 1 0 0 -27 0 -53 0 -106 0 -80 1 0 1 0 1 0 1 0 1 0 1 0 1 0 1 0 1 0 1 0 1 0 1 0 1 0 1 0 1 0 1 0 1 0 1 0 1 0 1 0 1 0 1 0 1 0 0 26"/>
<path stroke="blue" d="M262 110l0 54 0 106 0 80 1 0 1 0 1 0 1 0 1 0 1 0 1 0 1 0 1 0 1 0 1 0 1 0 1 0 1 0 1 0 1 0 1 0 1 0 1 0 1 0 1 0 1 0 1 0 0 -27 0 -53 0 -106 0 -80 1 0 1 0 1 0 1 0 1 0 1 0 1 0 1 0 1 0 1 0 1 0 1 0 1 0 1 0 1 0 1 0 1 0 1 0 1 0 1 0"/>
<path stroke="blue" d="M305 84l1 0 1 0 1 0 0 26 0 54 0 106 0 80 1 0 1 0 1 0 1 0 1 0 1 0 1 0 1 0 1 0 1 0 1 0 1 0 1 0 1 0 1 0 1 0 1 0 1 0 1 0 1 0 1 0 1 0 1 0 0 -27 0 -53 0 -106 0 -80 1 0 1 0 1 0 1 0 1 0 1 0 1 0 1 0 1 0 1 0 1 0 1 0 1 0 1 0 1 0 1 0"/>
<path stroke="blue" d="M347 84l1 0 1 0 1 0 1 0 1 0 1 0 1 0 0 26 0 54 0 106 0 80 1 0 1 0 1 0 1 0 1 0 1 0 1 0 1 0 1 0 1 0 1 0 1 0 1 0 1 0 1 0 1 0 1 0 1 0 1 0 1 0 1 0 1 0 1 0 0 -27 0 -53 0 -106 0 -80 1 0 1 0 1 0 1 0 1 0 1 0 1 0 1 0 1 0 1 0 1 0 1 0"/>
<path stroke="blue" d="M389 84l1 0 1 0 1 0 1 0 1 0 1 0 1 0 1 0 1 0 1 0 1 0 0 26 0 54 0 106 0 80 1 0 1 0 1 0 1 0 1 0 1 0 1 0 1 0 1 0 1 0 1 0 1 0 1 0 1 0 1 0 1 0 1 0 1 0 1 0 1 0 1 0 1 0 1 0 0 -27 0 -53 0 -106 0 -80 1 0 1 0 1 0 1 0 1 0 1 0 1 0 1 0"/>
<path stroke="blue" d="M431 84l1 0 1 0 1 0 1 0 1 0 1 0 1 0 1 0 1 0 1 0 1 0 1 0 1 0 1 0 1 0 0 26 0 54 0 106 0 80 1 0 1 0 1 0 1 0 1 0 1 0 1 0 1 0 1 0 1 0 1 0 1 0 1 0 1 0 1 0 1 0 1 0 1 0 1 0 1 0 1 0 1 0 1 0 0 -27 0 -53 0 -106 0 -80 1 0 1 0 1 0 1 0"/>
<path stroke="blue" d="M473 84l1 0 1 0 1 0 1 0 1 0 1 0 1 0 1 0 1 0 1 0 1 0 1 0 1 0 1 0 1 0 1 0 1 0 1 0 1 0 0 26 0 54 0 106 0 80 1 0 1 0 1 0 1 0 1 0 1 0 1 0 1 0 1 0 1 0 1 0 1 0 1 0 1 0 1 0 1 0 1 0 1 0 1 0 1 0 1 0 1 0 1 0 0 -27 0 -53 0 -106 0 -80"/>
<path stroke="blue" d="M515 84l1 0 1 0 1 0 1 0 1 0 1 0 1 0 1 0 1 0 1 0 1 0 1 0 1 0 1 0 1 0 1 0 1 0 1 0 1 0 1 0 1 0 1 0 1 0 0 26 0 54 0 106 0 80 1 0 1 0 1 0 1 0 1 0 1 0 1 0 1 0 1 0 1 0 1 0 1 0 1 0 1 0 1 0 1 0 1 0 1 0 1 0 1 0 1 0 1 0 1 0 0 -27"/>
<path stroke="blue" d="M561 323l0 -53 0 -106 0 -80 1 0 1 0 1 0 1 0 1 0 1 0 1 0 1 0 1 0 1 0 1 0 1 0 1 0 1 0 1 0 1 0 1 0 1 0 1 0 1 0 1 0 1 0 1 0 0 26 0 54 0 106 0 80 1 0 1 0 1 0 1 0 1 0 1 0 1 0 1 0 1 0 1 0 1 0 1 0 1 0 1 0 1 0 1 0 1 0 1 0 1 0 1 0"/>
<path stroke="blue" d="M604 350l1 0 1 0 1 0 0 -27 0 -53 0 -106 0 -80 1 0 1 0 1 0 1 0 1 0 1 0 1 0 1 0 1 0 1 0 1 0 1 0 1 0 1 0 1 0 1 0 1 0 1 0 1 0 1 0 1 0 1 0 1 0 0 26 0 54 0 106 0 80 1 0 1 0 1 0 1 0 1 0 1 0 1 0 1 0 1 0 1 0 1 0 1 0 1 0 1 0 1 0"/>
<path stroke="blue" d="M645 350l1 0 1 0 1 0 1 0 1 0 1 0 1 0 1 0 0 -27 0 -53 0 -106 0 -80 1 0 1 0 1 0 1 0 1 0 1 0 1 0 1 0 1 0 1 0 1 0 1 0 1 0 1 0 1 0 1 0 1 0 1 0 1 0 1 0 1 0 1 0 1 0 0 26 0 54 0 106 0 80 1 0 1 0 1 0 1 0 1 0 1 0 1 0 1 0 1 0 1 0"/>
<path stroke="blue" d="M686 350l1 0 1 0 1 0 1 0 1 0 1 0 1 0 1 0 1 0 1 0 1 0 1 0 1 0 0 -27 0 -53 0 -106 0 -80 1 0 1 0 1 0 1 0 1 0 1 0 1 0 1 0 1 0 1 0 1 0 1 0 1 0 1 0 1 0 1 0 1 0 1 0 1 0 1 0 1 0 1 0 1 0 0 26 0 54 0 106 0 80 1 0 1 0 1 0 1 0 1 0"/>
<path stroke="blue" d="M727 350l1 0 1 0 1 0 1 0 1 0 1 0 1 0 1 0 1 0 1 0 1 0 1 0 1 0 1 0 1 0 1 0 1 0 1 0 0 -27 0 -53 0 -106 0 -80 1 0 1 0 1 0 1 0 1 0 1 0 1 0 1 0 1 0 1 0 1 0 1 0 1 0 1 0 1 0 1 0 1 0 1 0 1 0 1 0 1 0 1 0 1 0 0 26 0 54 0 106 0 80"/>
<path stroke="blue" d="M768 350l1 0 1 0 1 0 1 0 1 0 1 0 1 0 1 0 1 0 1 0 1 0 1 0 1 0 1 0 1 0 1 0 1 0 1 0 1 0 1 0 1 0 1 0 1 0 0 -27 0 -53 0 -106 0 -80 1 0 1 0 1 0 1 0 1 0 1 0 1 0 1 0 1 0 1 0 1 0 1 0 1 0 1 0 1 0 1 0 1 0 1 0 1 0 1 0 1 0 1 0 1 0 0 26"/>
<path stroke="blue" d="M814 110l0 54 0 106 0 80 1 0 1 0 1 0 1 0 1 0 1 0 1 0 1 0 1 0 1 0 1 0 1 0 1 0 1 0 1 0 1 0 1 0 1 0 1 0 1 0 1 0 1 0 1 0 0 -27 0 -53 0 -106 0 -80 1 0 1 0 1 0 1 0 1 0 1 0 1 0 1 0 1 0 1 0 1 0 1 0 1 0 1 0 1 0 1 0 1 0 1 0 1 0 1 0"/>
<path stroke="blue" d="M857 84l1 0 1 0 1 0 0 26 0 54 0 106 0 80 1 0 1 0 1 0 1 0 1 0 1 0 1 0 1 0 1 0 1 0 1 0 1 0 1 0 1 0 1 0 1 0 1 0 1 0 1 0 1 0 1 0 1 0 1 0 0 -27 0 -53 0 -106 0 -80 1 0 1 0 1 0 1 0 1 0 1 0 1 0 1 0 1 0 1 0 1 0 1 0 1 0 1 0 1 0 1 0"/>
<path stroke="blue" d="M899 84l1 0 1 0 1 0 1 0 1 0 1 0 1 0 0 26 0 54 0 106 0 80 1 0 1 0 1 0 1 0 1 0 1 0 1 0 1 0 1 0 1 0 1 0 1 0 1 0 1 0 1 0 1 0 1 0 1 0 1 0 1 0 1 0 1 0 1 0 0 -27 0 -53 0 -106 0 -80 1 0 1 0 1 0 1 0 1 0 1 0 1 0 1 0 1 0 1 0 1 0 1 0"/>
<path stroke="blue" d="M941 84l1 0 1 0 1 0 1 0 1 0 1 0 1 0 1 0 1 0 1 0 1 0 0 26 0 54 0 106 0 80 1 0 1 0 1 0 1 0 1 0 1 0 1 0 1 0 1 0 1 0 1 0 1 0 1 0 1 0 1 0 1 0 1 0 1 0"/>
</svg>
